<?xml version="1.0" encoding="UTF-8" standalone="no"?> <svg xmlns="http://www.w3.org/2000/svg" viewBox="0 0 32 32"><defs><style>.cls-1,.cls-2{fill:#1a1a1a;}.cls-2{stroke:#1a1a1a;stroke-miterlimit:10;stroke-width:0.5px;}</style></defs><title>Check, list, money, shopping, dollar</title><g id="_04" data-name="04"><path class="cls-1" d="M21,30H7a1,1,0,0,1-1-1V3A1,1,0,0,1,7,2H22.5a1,1,0,0,1,0,2H8V28H21a1,1,0,0,1,0,2Z"/><path class="cls-1" d="M25,26a1,1,0,0,1-1-1V15.5a1,1,0,0,1,2,0V25A1,1,0,0,1,25,26Z"/><path class="cls-1" d="M22.5,17A7.5,7.5,0,1,1,30,9.5,7.508,7.508,0,0,1,22.5,17Zm0-13A5.5,5.5,0,1,0,28,9.5,5.506,5.506,0,0,0,22.5,4Z"/><path class="cls-1" d="M21,30a1,1,0,0,1-1-1V25a1,1,0,0,1,1-1h4a1,1,0,0,1,.707,1.707l-4,4A1,1,0,0,1,21,30Zm1-4v.586L22.586,26Z"/><path class="cls-2" d="M22.49,13.248V12.4a3.583,3.583,0,0,1-1.517-.383l.267-1.045a3.157,3.157,0,0,0,1.482.393c.508,0,.857-.2.857-.553,0-.34-.286-.554-.946-.777-.955-.322-1.607-.768-1.607-1.634a1.648,1.648,0,0,1,1.508-1.588V5.964h.875V6.75a3.217,3.217,0,0,1,1.3.294l-.26,1.009a2.957,2.957,0,0,0-1.285-.3c-.58,0-.767.25-.767.5,0,.294.312.481,1.071.767,1.062.375,1.49.866,1.49,1.67a1.71,1.71,0,0,1-1.589,1.651v.91Z"/><path class="cls-1" d="M13,10H10a1,1,0,0,1,0-2h3a1,1,0,0,1,0,2Z"/><path class="cls-1" d="M13,13H10a1,1,0,0,1,0-2h3a1,1,0,0,1,0,2Z"/><path class="cls-1" d="M16,19H10a1,1,0,0,1,0-2h6a1,1,0,0,1,0,2Z"/><path class="cls-1" d="M20,22H10a1,1,0,0,1,0-2H20a1,1,0,0,1,0,2Z"/></g></svg>