<?xml version="1.0" encoding="utf-8"?>
<!-- Generator: Adobe Illustrator 23.0.3, SVG Export Plug-In . SVG Version: 6.00 Build 0)  -->
<svg version="1.1" id="Icons" xmlns="http://www.w3.org/2000/svg" xmlns:xlink="http://www.w3.org/1999/xlink" x="0px" y="0px"
	 viewBox="0 0 32 32" style="enable-background:new 0 0 32 32;" xml:space="preserve">
<g>
	<path d="M27,10H6c-1.1,0-2-0.9-2-2s0.9-2,2-2h4c0.6,0,1-0.4,1-1s-0.4-1-1-1H6C3.8,4,2,5.8,2,8v16c0,2.2,1.8,4,4,4h21
		c1.7,0,3-1.3,3-3V13C30,11.3,28.7,10,27,10z M28,15.8v6.4c-0.3-0.1-0.6-0.2-1-0.2h-4c-1.7,0-3-1.3-3-3s1.3-3,3-3h4
		C27.4,16,27.7,15.9,28,15.8z"/>
	<path d="M7,7C6.4,7,6,7.4,6,8s0.4,1,1,1h4c0,0,0,0,0,0s0,0,0,0h15c0.3,0,0.6-0.2,0.8-0.4c0.2-0.3,0.2-0.6,0.1-0.9l-2-5
		c-0.2-0.5-0.8-0.8-1.3-0.6L10.8,7H7z"/>
	<path d="M25,18h-2c-0.6,0-1,0.4-1,1s0.4,1,1,1h2c0.6,0,1-0.4,1-1S25.6,18,25,18z"/>
</g>
</svg>
